<svg xmlns="http://www.w3.org/2000/svg" width="191.25" viewBox="0 0 191.25 191.25" height="191.25" version="1.0"><g fill="#222"><g><g><path d="M 25.203125 -7.9375 L 11.28125 -7.9375 L 8.625 0 L 0.1875 0 L 14.53125 -38.53125 L 21.890625 -38.53125 L 36.3125 0 L 27.875 0 Z M 13.421875 -14.375 L 23.046875 -14.375 L 18.203125 -28.796875 Z M 13.421875 -14.375" transform="translate(23.16 113.555)"/></g></g></g><g fill="#222"><g><g><path d="M 28.75 -14.046875 C 28.75 -9.460938 27.765625 -5.882812 25.796875 -3.3125 C 23.835938 -0.75 21.101562 0.53125 17.59375 0.53125 C 14.488281 0.53125 12.007812 -0.660156 10.15625 -3.046875 L 9.8125 0 L 2.9375 0 L 2.9375 -40.65625 L 10.59375 -40.65625 L 10.59375 -26.0625 C 12.351562 -28.132812 14.671875 -29.171875 17.546875 -29.171875 C 21.035156 -29.171875 23.773438 -27.882812 25.765625 -25.3125 C 27.753906 -22.75 28.75 -19.140625 28.75 -14.484375 Z M 21.09375 -14.609375 C 21.09375 -17.503906 20.632812 -19.617188 19.71875 -20.953125 C 18.800781 -22.285156 17.429688 -22.953125 15.609375 -22.953125 C 13.179688 -22.953125 11.507812 -21.953125 10.59375 -19.953125 L 10.59375 -8.65625 C 11.519531 -6.644531 13.210938 -5.640625 15.671875 -5.640625 C 18.140625 -5.640625 19.757812 -6.859375 20.53125 -9.296875 C 20.90625 -10.453125 21.09375 -12.222656 21.09375 -14.609375 Z M 21.09375 -14.609375" transform="translate(59.628 113.555)"/></g></g></g><g fill="#222"><g><g><path d="M 1.75 -14.578125 C 1.75 -17.421875 2.296875 -19.953125 3.390625 -22.171875 C 4.484375 -24.398438 6.054688 -26.125 8.109375 -27.34375 C 10.160156 -28.5625 12.546875 -29.171875 15.265625 -29.171875 C 19.128906 -29.171875 22.28125 -27.988281 24.71875 -25.625 C 27.164062 -23.257812 28.535156 -20.046875 28.828125 -15.984375 L 28.875 -14.03125 C 28.875 -9.632812 27.644531 -6.109375 25.1875 -3.453125 C 22.738281 -0.796875 19.445312 0.53125 15.3125 0.53125 C 11.1875 0.53125 7.894531 -0.789062 5.4375 -3.4375 C 2.976562 -6.082031 1.75 -9.679688 1.75 -14.234375 Z M 9.390625 -14.03125 C 9.390625 -11.3125 9.898438 -9.234375 10.921875 -7.796875 C 11.953125 -6.359375 13.421875 -5.640625 15.328125 -5.640625 C 17.179688 -5.640625 18.625 -6.347656 19.65625 -7.765625 C 20.695312 -9.179688 21.21875 -11.453125 21.21875 -14.578125 C 21.21875 -17.242188 20.695312 -19.304688 19.65625 -20.765625 C 18.625 -22.234375 17.160156 -22.96875 15.265625 -22.96875 C 13.398438 -22.96875 11.953125 -22.238281 10.921875 -20.78125 C 9.898438 -19.332031 9.390625 -17.082031 9.390625 -14.03125 Z M 9.390625 -14.03125" transform="translate(90.14 113.555)"/></g></g></g><g fill="#222"><g><g><path d="M 20.09375 -2.90625 C 18.195312 -0.613281 15.582031 0.53125 12.25 0.53125 C 9.1875 0.53125 6.847656 -0.347656 5.234375 -2.109375 C 3.617188 -3.878906 2.789062 -6.46875 2.75 -9.875 L 2.75 -28.640625 L 10.40625 -28.640625 L 10.40625 -10.140625 C 10.40625 -7.148438 11.765625 -5.65625 14.484375 -5.65625 C 17.078125 -5.65625 18.859375 -6.554688 19.828125 -8.359375 L 19.828125 -28.640625 L 27.5 -28.640625 L 27.5 0 L 20.296875 0 Z M 20.09375 -2.90625" transform="translate(120.785 113.555)"/></g></g></g><g fill="#222"><g><g><path d="M 12.09375 -35.671875 L 12.09375 -28.640625 L 16.984375 -28.640625 L 16.984375 -23.03125 L 12.09375 -23.03125 L 12.09375 -8.734375 C 12.09375 -7.671875 12.296875 -6.910156 12.703125 -6.453125 C 13.109375 -5.992188 13.882812 -5.765625 15.03125 -5.765625 C 15.875 -5.765625 16.625 -5.828125 17.28125 -5.953125 L 17.28125 -0.15625 C 15.78125 0.300781 14.238281 0.53125 12.65625 0.53125 C 7.289062 0.53125 4.554688 -2.175781 4.453125 -7.59375 L 4.453125 -23.03125 L 0.265625 -23.03125 L 0.265625 -28.640625 L 4.453125 -28.640625 L 4.453125 -35.671875 Z M 12.09375 -35.671875" transform="translate(151.113 113.555)"/></g></g></g></svg>