<svg xmlns="http://www.w3.org/2000/svg" width="191.25" viewBox="0 0 191.25 191.25" height="191.25" version="1.0"><defs><clipPath id="a"><path d="M 0 0 L 190.503906 0 L 190.503906 190.503906 L 0 190.503906 Z M 0 0"/></clipPath><clipPath id="b"><path d="M 169 65.34375 L 176 65.34375 L 176 70.871094 L 169 70.871094 Z M 169 65.34375"/></clipPath><clipPath id="c"><path d="M 166 69 L 179.171875 69 L 179.171875 90 L 166 90 Z M 166 69"/></clipPath><clipPath id="d"><path d="M 146.039062 92 L 175 92 L 175 118.847656 L 146.039062 118.847656 Z M 146.039062 92"/></clipPath></defs><g clip-path="url(#a)"><path fill="#FFF" d="M 0 0 L 191.25 0 L 191.25 198.71875 L 0 198.71875 Z M 0 0"/><path fill="#FFF" d="M 0 0 L 190.503906 0 L 190.503906 190.503906 L 0 190.503906 Z M 0 0"/><path fill="#FF1616" d="M 0 0 L 190.503906 0 L 190.503906 190.503906 L 0 190.503906 Z M 0 0"/></g><g clip-path="url(#b)"><path fill="#FFF" d="M 175.707031 69.296875 C 174.386719 66.902344 172.75 65.351562 172.75 65.351562 C 172.75 65.351562 171.125 66.902344 169.804688 69.296875 C 170.628906 69.914062 171.644531 70.277344 172.75 70.277344 C 173.859375 70.277344 174.882812 69.914062 175.707031 69.296875"/></g><path fill="#FFF" d="M 174.976562 91.105469 L 174.984375 91.066406 L 174.984375 91.035156 C 175.09375 90.511719 175.09375 90.039062 174.84375 89.507812 C 174.488281 88.707031 173.683594 88.148438 172.742188 88.148438 C 171.480469 88.148438 170.457031 89.175781 170.457031 90.433594 C 170.457031 90.449219 170.457031 90.472656 170.457031 90.496094 C 170.457031 90.785156 170.496094 91.105469 170.527344 91.273438 C 170.597656 91.625 170.582031 91.9375 170.496094 92.285156 C 170.636719 92.207031 170.738281 92.085938 170.796875 91.929688 C 170.921875 92.308594 170.984375 92.691406 170.78125 93.136719 C 170.804688 93.082031 171.246094 93.003906 171.324219 92.964844 C 171.503906 92.863281 171.605469 92.730469 171.644531 92.535156 C 171.890625 92.792969 171.796875 93.3125 171.875 93.640625 C 172.117188 94.660156 172.851562 95.46875 173.070312 96.488281 C 172.992188 95.929688 172.945312 95.46875 173.070312 94.894531 C 173.210938 94.285156 173.472656 93.695312 173.726562 93.128906 C 173.804688 92.949219 173.921875 92.800781 174.039062 92.660156 C 174.046875 92.753906 174.070312 92.847656 174.09375 92.941406 C 174.140625 93.097656 174.195312 93.257812 174.300781 93.375 C 174.378906 93.460938 174.636719 93.5625 174.667969 93.671875 C 174.628906 93.515625 174.542969 93.375 174.511719 93.21875 C 174.480469 93.035156 174.511719 92.824219 174.558594 92.644531 C 174.707031 92.054688 174.875 91.554688 174.976562 91.105469"/><g clip-path="url(#c)"><path fill="#FFF" d="M 179.125 89.183594 L 177.84375 83.074219 C 177.828125 83.042969 177.804688 83.003906 177.773438 82.980469 L 176.417969 82.078125 C 176.9375 79.453125 177.363281 76.605469 177.363281 75.136719 C 177.363281 73.042969 176.667969 71.105469 175.820312 69.515625 C 174.976562 70.1875 173.914062 70.582031 172.75 70.582031 C 171.597656 70.582031 170.527344 70.1875 169.683594 69.515625 C 168.835938 71.105469 168.148438 73.042969 168.148438 75.136719 C 168.148438 76.605469 168.566406 79.453125 169.09375 82.078125 L 167.738281 82.980469 C 167.707031 83.003906 167.675781 83.042969 167.667969 83.074219 L 166.386719 89.183594 C 166.355469 89.25 166.378906 89.328125 166.433594 89.382812 C 166.472656 89.421875 166.519531 89.445312 166.574219 89.445312 C 166.597656 89.445312 166.621094 89.4375 166.644531 89.429688 L 170.054688 86.117188 C 170.226562 86.667969 170.378906 87.121094 170.527344 87.40625 L 174.984375 87.40625 C 175.125 87.121094 175.285156 86.667969 175.449219 86.117188 L 178.867188 89.429688 C 178.890625 89.4375 178.914062 89.445312 178.9375 89.445312 C 178.992188 89.445312 179.039062 89.421875 179.078125 89.382812 C 179.132812 89.328125 179.148438 89.25 179.125 89.183594"/></g><g clip-path="url(#d)"><path fill="#FFF" d="M 174.277344 93.90625 C 174.261719 93.890625 174.230469 93.875 174.210938 93.867188 C 174.132812 93.8125 174.046875 93.757812 173.96875 93.679688 C 173.789062 94.101562 173.613281 94.542969 173.511719 94.988281 C 173.402344 95.484375 173.441406 95.898438 173.511719 96.363281 C 173.519531 96.402344 173.527344 96.441406 173.527344 96.488281 C 173.527344 96.730469 173.324219 96.933594 173.085938 96.933594 L 173.070312 96.933594 C 172.867188 96.933594 172.683594 96.792969 172.636719 96.582031 C 172.535156 96.132812 172.308594 95.703125 172.070312 95.25 C 171.820312 94.785156 171.566406 94.300781 171.433594 93.742188 C 171.410156 93.640625 171.394531 93.523438 171.394531 93.414062 C 171.339844 93.429688 171.277344 93.445312 171.203125 93.460938 C 171.15625 93.476562 171.070312 93.492188 171.023438 93.507812 C 170.898438 93.585938 170.738281 93.601562 170.589844 93.539062 C 170.363281 93.4375 170.269531 93.171875 170.371094 92.949219 C 170.402344 92.871094 170.425781 92.800781 170.441406 92.730469 C 170.386719 92.722656 170.324219 92.699219 170.277344 92.675781 C 170.253906 93.058594 170.234375 93.445312 170.203125 93.835938 C 170.0625 95.640625 169.804688 97.429688 169.402344 99.179688 C 168.613281 102.699219 167.25 106.09375 165.171875 109.066406 C 163.109375 112.039062 160.324219 114.558594 157 116.222656 C 155.339844 117.050781 153.558594 117.664062 151.714844 118.023438 C 149.863281 118.371094 147.953125 118.511719 146.039062 118.285156 C 146.96875 118.519531 147.921875 118.683594 148.890625 118.769531 C 149.863281 118.855469 150.839844 118.839844 151.816406 118.761719 C 153.761719 118.613281 155.699219 118.191406 157.558594 117.515625 C 161.289062 116.160156 164.667969 113.773438 167.324219 110.753906 C 170 107.726562 171.96875 104.109375 173.300781 100.308594 C 174.03125 98.253906 174.574219 96.140625 174.96875 94 C 174.914062 94.046875 174.84375 94.085938 174.765625 94.101562 C 174.574219 94.15625 174.378906 94.070312 174.277344 93.90625"/></g><path fill="#FFF" d="M 174.992188 92.746094 C 174.953125 92.917969 174.9375 93.050781 174.953125 93.144531 C 174.960938 93.179688 174.984375 93.234375 175.007812 93.296875 C 175.03125 93.34375 175.046875 93.390625 175.0625 93.445312 C 175.1875 92.738281 175.292969 92.023438 175.386719 91.304688 C 175.332031 91.523438 175.269531 91.75 175.203125 91.992188 C 175.132812 92.230469 175.0625 92.480469 174.992188 92.746094"/><path fill="#FFF" d="M 9.859375 97.824219 L 9.859375 85.964844 L 14.507812 85.964844 C 15.851562 85.964844 16.894531 86.324219 17.640625 87.023438 C 18.382812 87.730469 18.757812 88.664062 18.757812 89.824219 C 18.757812 90.632812 18.570312 91.335938 18.199219 91.910156 C 17.84375 92.496094 17.339844 92.929688 16.679688 93.21875 L 19.191406 97.824219 L 16.429688 97.824219 L 14.167969 93.621094 L 12.371094 93.621094 L 12.371094 97.824219 Z M 12.371094 91.597656 L 14.042969 91.597656 C 15.46875 91.597656 16.183594 91.007812 16.183594 89.824219 C 16.183594 88.625 15.46875 88.019531 14.042969 88.019531 L 12.371094 88.019531 Z M 12.371094 91.597656"/><path fill="#FFF" d="M 31.371094 91.878906 C 31.371094 93.1875 31.121094 94.300781 30.625 95.210938 C 30.144531 96.105469 29.488281 96.789062 28.640625 97.265625 C 27.8125 97.746094 26.882812 97.980469 25.851562 97.980469 C 24.796875 97.980469 23.84375 97.746094 23 97.265625 C 22.167969 96.789062 21.511719 96.097656 21.015625 95.179688 C 20.535156 94.269531 20.300781 93.171875 20.300781 91.878906 C 20.300781 90.59375 20.535156 89.507812 21.015625 88.609375 C 21.511719 87.699219 22.167969 87.007812 23 86.527344 C 23.84375 86.050781 24.796875 85.808594 25.851562 85.808594 C 26.882812 85.808594 27.8125 86.050781 28.640625 86.527344 C 29.488281 87.007812 30.144531 87.699219 30.625 88.609375 C 31.121094 89.507812 31.371094 90.59375 31.371094 91.878906 Z M 28.859375 91.878906 C 28.859375 90.632812 28.578125 89.683594 28.023438 89.015625 C 27.480469 88.355469 26.757812 88.019531 25.851562 88.019531 C 24.9375 88.019531 24.207031 88.355469 23.648438 89.015625 C 23.105469 89.683594 22.84375 90.632812 22.84375 91.878906 C 22.84375 93.148438 23.105469 94.113281 23.648438 94.773438 C 24.207031 95.445312 24.9375 95.769531 25.851562 95.769531 C 26.757812 95.769531 27.480469 95.445312 28.023438 94.773438 C 28.578125 94.113281 28.859375 93.148438 28.859375 91.878906 Z M 28.859375 91.878906"/><path fill="#FFF" d="M 43.640625 90.105469 L 41.128906 90.105469 C 41.019531 89.46875 40.742188 88.953125 40.292969 88.578125 C 39.835938 88.207031 39.269531 88.019531 38.585938 88.019531 C 37.671875 88.019531 36.941406 88.363281 36.386719 89.046875 C 35.828125 89.714844 35.546875 90.65625 35.546875 91.878906 C 35.546875 93.148438 35.828125 94.113281 36.386719 94.773438 C 36.941406 95.445312 37.664062 95.769531 38.554688 95.769531 C 39.214844 95.769531 39.773438 95.597656 40.230469 95.242188 C 40.703125 94.890625 41.003906 94.402344 41.128906 93.777344 L 43.640625 93.777344 C 43.554688 94.511719 43.300781 95.195312 42.863281 95.832031 C 42.445312 96.480469 41.871094 97 41.128906 97.390625 C 40.398438 97.785156 39.53125 97.980469 38.523438 97.980469 C 37.46875 97.980469 36.523438 97.746094 35.703125 97.265625 C 34.875 96.789062 34.214844 96.105469 33.71875 95.210938 C 33.238281 94.300781 33.003906 93.1875 33.003906 91.878906 C 33.003906 90.59375 33.238281 89.507812 33.71875 88.609375 C 34.214844 87.699219 34.875 87.007812 35.703125 86.527344 C 36.546875 86.050781 37.484375 85.808594 38.523438 85.808594 C 39.429688 85.808594 40.246094 85.980469 40.972656 86.308594 C 41.71875 86.640625 42.316406 87.132812 42.773438 87.769531 C 43.246094 88.417969 43.53125 89.195312 43.640625 90.105469 Z M 43.640625 90.105469"/><path fill="#FFF" d="M 45.441406 97.824219 L 45.441406 85.964844 L 47.953125 85.964844 L 47.953125 91.195312 L 48.105469 91.195312 L 52.355469 85.964844 L 55.332031 85.964844 L 50.960938 91.289062 L 55.394531 97.824219 L 52.417969 97.824219 L 49.160156 92.9375 L 47.953125 94.464844 L 47.953125 97.824219 Z M 45.441406 97.824219"/><path fill="#FFF" d="M 56.644531 97.824219 L 56.644531 85.964844 L 64.613281 85.964844 L 64.613281 88.019531 L 59.15625 88.019531 L 59.15625 90.851562 L 64.210938 90.851562 L 64.210938 92.9375 L 59.15625 92.9375 L 59.15625 95.769531 L 64.644531 95.769531 L 64.644531 97.824219 Z M 56.644531 97.824219"/><path fill="#FFF" d="M 66.160156 88.019531 L 66.160156 85.964844 L 75.867188 85.964844 L 75.867188 88.019531 L 72.238281 88.019531 L 72.238281 97.824219 L 69.757812 97.824219 L 69.757812 88.019531 Z M 66.160156 88.019531"/><path fill="#FFF" d="M 81.222656 97.824219 L 81.222656 85.964844 L 89.191406 85.964844 L 89.191406 88.019531 L 83.734375 88.019531 L 83.734375 90.851562 L 88.785156 90.851562 L 88.785156 92.9375 L 83.734375 92.9375 L 83.734375 95.769531 L 89.21875 95.769531 L 89.21875 97.824219 Z M 81.222656 97.824219"/><path fill="#FFF" d="M 93.527344 85.964844 L 95.917969 90.011719 L 95.980469 90.011719 L 98.398438 85.964844 L 101.21875 85.964844 L 97.589844 91.878906 L 101.28125 97.824219 L 98.429688 97.824219 L 95.980469 93.777344 L 95.917969 93.777344 L 93.46875 97.824219 L 90.613281 97.824219 L 94.304688 91.878906 L 90.675781 85.964844 Z M 93.527344 85.964844"/><path fill="#FFF" d="M 102.78125 97.824219 L 102.78125 85.964844 L 107.429688 85.964844 C 108.335938 85.964844 109.105469 86.144531 109.726562 86.496094 C 110.359375 86.828125 110.847656 87.296875 111.183594 87.894531 C 111.507812 88.503906 111.679688 89.195312 111.679688 89.980469 C 111.679688 90.773438 111.5 91.46875 111.152344 92.066406 C 110.816406 92.671875 110.328125 93.140625 109.695312 93.46875 C 109.050781 93.800781 108.277344 93.964844 107.367188 93.964844 L 105.292969 93.964844 L 105.292969 97.824219 Z M 105.292969 91.972656 L 106.964844 91.972656 C 107.6875 91.972656 108.222656 91.785156 108.578125 91.414062 C 108.925781 91.039062 109.105469 90.5625 109.105469 89.980469 C 109.105469 89.40625 108.925781 88.9375 108.578125 88.578125 C 108.222656 88.207031 107.6875 88.019531 106.964844 88.019531 L 105.292969 88.019531 Z M 105.292969 91.972656"/><path fill="#FFF" d="M 113.304688 97.824219 L 113.304688 85.964844 L 117.953125 85.964844 C 119.292969 85.964844 120.339844 86.324219 121.085938 87.023438 C 121.828125 87.730469 122.203125 88.664062 122.203125 89.824219 C 122.203125 90.632812 122.015625 91.335938 121.644531 91.910156 C 121.285156 92.496094 120.78125 92.929688 120.125 93.21875 L 122.636719 97.824219 L 119.875 97.824219 L 117.613281 93.621094 L 115.8125 93.621094 L 115.8125 97.824219 Z M 115.8125 91.597656 L 117.488281 91.597656 C 118.914062 91.597656 119.628906 91.007812 119.628906 89.824219 C 119.628906 88.625 118.914062 88.019531 117.488281 88.019531 L 115.8125 88.019531 Z M 115.8125 91.597656"/><path fill="#FFF" d="M 123.964844 97.824219 L 123.964844 85.964844 L 131.933594 85.964844 L 131.933594 88.019531 L 126.476562 88.019531 L 126.476562 90.851562 L 131.53125 90.851562 L 131.53125 92.9375 L 126.476562 92.9375 L 126.476562 95.769531 L 131.964844 95.769531 L 131.964844 97.824219 Z M 123.964844 97.824219"/><path fill="#FFF" d="M 140.332031 89.390625 C 140.285156 88.914062 140.09375 88.550781 139.742188 88.300781 C 139.386719 88.035156 138.914062 87.894531 138.316406 87.894531 C 137.699219 87.894531 137.21875 88.019531 136.890625 88.269531 C 136.582031 88.519531 136.425781 88.84375 136.425781 89.234375 C 136.402344 89.652344 136.582031 89.972656 136.953125 90.199219 C 137.324219 90.410156 137.765625 90.570312 138.285156 90.695312 L 139.339844 90.945312 C 140.023438 91.117188 140.628906 91.34375 141.171875 91.628906 C 141.707031 91.925781 142.117188 92.300781 142.410156 92.75 C 142.71875 93.210938 142.875 93.769531 142.875 94.433594 C 142.875 95.515625 142.472656 96.378906 141.667969 97.015625 C 140.859375 97.660156 139.730469 97.980469 138.285156 97.980469 C 136.859375 97.980469 135.714844 97.660156 134.84375 97.015625 C 133.992188 96.355469 133.558594 95.382812 133.542969 94.089844 L 135.960938 94.089844 C 136 94.695312 136.226562 95.148438 136.644531 95.460938 C 137.078125 95.753906 137.613281 95.894531 138.253906 95.894531 C 138.890625 95.894531 139.402344 95.761719 139.773438 95.492188 C 140.164062 95.226562 140.363281 94.867188 140.363281 94.433594 C 140.363281 94.042969 140.1875 93.738281 139.835938 93.53125 C 139.480469 93.304688 138.984375 93.109375 138.347656 92.9375 L 137.078125 92.625 C 136.085938 92.378906 135.292969 91.996094 134.722656 91.476562 C 134.140625 90.960938 133.851562 90.261719 133.851562 89.390625 C 133.851562 88.664062 134.039062 88.042969 134.410156 87.523438 C 134.796875 86.984375 135.339844 86.570312 136.023438 86.277344 C 136.707031 85.964844 137.464844 85.808594 138.316406 85.808594 C 139.203125 85.808594 139.96875 85.964844 140.613281 86.277344 C 141.269531 86.570312 141.789062 86.984375 142.164062 87.523438 C 142.535156 88.042969 142.71875 88.664062 142.71875 89.390625 Z M 140.332031 89.390625"/><path fill="#FFF" d="M 150.972656 89.390625 C 150.925781 88.914062 150.734375 88.550781 150.382812 88.300781 C 150.027344 88.035156 149.554688 87.894531 148.957031 87.894531 C 148.339844 87.894531 147.859375 88.019531 147.53125 88.269531 C 147.222656 88.519531 147.066406 88.84375 147.066406 89.234375 C 147.042969 89.652344 147.222656 89.972656 147.59375 90.199219 C 147.964844 90.410156 148.40625 90.570312 148.925781 90.695312 L 149.980469 90.945312 C 150.664062 91.117188 151.269531 91.34375 151.8125 91.628906 C 152.34375 91.925781 152.757812 92.300781 153.050781 92.75 C 153.359375 93.210938 153.515625 93.769531 153.515625 94.433594 C 153.515625 95.515625 153.113281 96.378906 152.308594 97.015625 C 151.5 97.660156 150.367188 97.980469 148.925781 97.980469 C 147.5 97.980469 146.355469 97.660156 145.484375 97.015625 C 144.632812 96.355469 144.199219 95.382812 144.183594 94.089844 L 146.601562 94.089844 C 146.640625 94.695312 146.863281 95.148438 147.285156 95.460938 C 147.71875 95.753906 148.253906 95.894531 148.894531 95.894531 C 149.53125 95.894531 150.042969 95.761719 150.414062 95.492188 C 150.804688 95.226562 151.003906 94.867188 151.003906 94.433594 C 151.003906 94.042969 150.828125 93.738281 150.476562 93.53125 C 150.121094 93.304688 149.625 93.109375 148.988281 92.9375 L 147.71875 92.625 C 146.726562 92.378906 145.933594 91.996094 145.363281 91.476562 C 144.78125 90.960938 144.492188 90.261719 144.492188 89.390625 C 144.492188 88.664062 144.679688 88.042969 145.050781 87.523438 C 145.4375 86.984375 145.980469 86.570312 146.664062 86.277344 C 147.347656 85.964844 148.105469 85.808594 148.957031 85.808594 C 149.84375 85.808594 150.609375 85.964844 151.253906 86.277344 C 151.910156 86.570312 152.429688 86.984375 152.804688 87.523438 C 153.175781 88.042969 153.359375 88.664062 153.359375 89.390625 Z M 150.972656 89.390625"/></svg>