<svg xmlns="http://www.w3.org/2000/svg" width="191.25" viewBox="0 0 191.25 191.25" height="191.25" version="1.0"><defs><clipPath id="a"><path d="M 0 0 L 190.503906 0 L 190.503906 190.503906 L 0 190.503906 Z M 0 0"/></clipPath></defs><g clip-path="url(#a)"><path fill="#FFF" d="M 0 0 L 191.25 0 L 191.25 198.71875 L 0 198.71875 Z M 0 0"/><path fill="#FFF" d="M 0 0 L 190.503906 0 L 190.503906 190.503906 L 0 190.503906 Z M 0 0"/><path fill="#FF6B65" d="M 0 0 L 190.503906 0 L 190.503906 190.503906 L 0 190.503906 Z M 0 0"/></g><g fill="#FFF"><g><g><path d="M 21.765625 0.625 C 19.097656 0.625 16.445312 0.539062 13.8125 0.375 C 11.175781 0.21875 8.4375 -0.160156 5.59375 -0.765625 L 5.59375 -47.78125 C 7.832031 -48.207031 10.28125 -48.523438 12.9375 -48.734375 C 15.601562 -48.941406 18.078125 -49.046875 20.359375 -49.046875 C 23.441406 -49.046875 26.273438 -48.820312 28.859375 -48.375 C 31.453125 -47.9375 33.679688 -47.179688 35.546875 -46.109375 C 37.410156 -45.035156 38.863281 -43.625 39.90625 -41.875 C 40.957031 -40.125 41.484375 -37.96875 41.484375 -35.40625 C 41.484375 -31.53125 39.617188 -28.472656 35.890625 -26.234375 C 38.972656 -25.066406 41.070312 -23.476562 42.1875 -21.46875 C 43.3125 -19.46875 43.875 -17.207031 43.875 -14.6875 C 43.875 -9.601562 42.019531 -5.78125 38.3125 -3.21875 C 34.601562 -0.65625 29.085938 0.625 21.765625 0.625 Z M 16.234375 -21.125 L 16.234375 -8.609375 C 17.023438 -8.515625 17.882812 -8.441406 18.8125 -8.390625 C 19.75 -8.347656 20.78125 -8.328125 21.90625 -8.328125 C 25.164062 -8.328125 27.796875 -8.789062 29.796875 -9.71875 C 31.804688 -10.65625 32.8125 -12.382812 32.8125 -14.90625 C 32.8125 -17.144531 31.972656 -18.738281 30.296875 -19.6875 C 28.617188 -20.644531 26.21875 -21.125 23.09375 -21.125 Z M 16.234375 -29.453125 L 21.546875 -29.453125 C 24.910156 -29.453125 27.3125 -29.882812 28.75 -30.75 C 30.195312 -31.613281 30.921875 -33.003906 30.921875 -34.921875 C 30.921875 -36.878906 30.175781 -38.253906 28.6875 -39.046875 C 27.195312 -39.835938 25.003906 -40.234375 22.109375 -40.234375 C 21.171875 -40.234375 20.164062 -40.21875 19.09375 -40.1875 C 18.019531 -40.164062 17.066406 -40.109375 16.234375 -40.015625 Z M 16.234375 -29.453125" transform="translate(2.728 115.01)"/></g></g></g><g fill="#FFF"><g><g><path d="M 19.59375 0.703125 C 16.5625 0.648438 14.097656 0.320312 12.203125 -0.28125 C 10.316406 -0.882812 8.828125 -1.734375 7.734375 -2.828125 C 6.640625 -3.929688 5.890625 -5.265625 5.484375 -6.828125 C 5.085938 -8.390625 4.890625 -10.148438 4.890625 -12.109375 L 4.890625 -52.609375 L 15.328125 -54.296875 L 15.328125 -14.203125 C 15.328125 -13.265625 15.394531 -12.421875 15.53125 -11.671875 C 15.675781 -10.929688 15.945312 -10.304688 16.34375 -9.796875 C 16.738281 -9.285156 17.304688 -8.863281 18.046875 -8.53125 C 18.796875 -8.207031 19.800781 -8 21.0625 -7.90625 Z M 19.59375 0.703125" transform="translate(49.739 115.01)"/></g></g></g><g fill="#FFF"><g><g><path d="M 39.328125 -18.46875 C 39.328125 -15.582031 38.90625 -12.9375 38.0625 -10.53125 C 37.21875 -8.125 36.003906 -6.066406 34.421875 -4.359375 C 32.835938 -2.660156 30.9375 -1.34375 28.71875 -0.40625 C 26.507812 0.519531 24.023438 0.984375 21.265625 0.984375 C 18.566406 0.984375 16.109375 0.519531 13.890625 -0.40625 C 11.671875 -1.34375 9.769531 -2.660156 8.1875 -4.359375 C 6.601562 -6.066406 5.367188 -8.125 4.484375 -10.53125 C 3.597656 -12.9375 3.15625 -15.582031 3.15625 -18.46875 C 3.15625 -21.363281 3.609375 -24 4.515625 -26.375 C 5.421875 -28.757812 6.675781 -30.789062 8.28125 -32.46875 C 9.894531 -34.144531 11.8125 -35.445312 14.03125 -36.375 C 16.25 -37.3125 18.660156 -37.78125 21.265625 -37.78125 C 23.929688 -37.78125 26.367188 -37.3125 28.578125 -36.375 C 30.796875 -35.445312 32.695312 -34.144531 34.28125 -32.46875 C 35.863281 -30.789062 37.097656 -28.757812 37.984375 -26.375 C 38.878906 -24 39.328125 -21.363281 39.328125 -18.46875 Z M 28.6875 -18.46875 C 28.6875 -21.6875 28.046875 -24.21875 26.765625 -26.0625 C 25.484375 -27.90625 23.648438 -28.828125 21.265625 -28.828125 C 18.890625 -28.828125 17.046875 -27.90625 15.734375 -26.0625 C 14.429688 -24.21875 13.78125 -21.6875 13.78125 -18.46875 C 13.78125 -15.25 14.429688 -12.691406 15.734375 -10.796875 C 17.046875 -8.910156 18.890625 -7.96875 21.265625 -7.96875 C 23.648438 -7.96875 25.484375 -8.910156 26.765625 -10.796875 C 28.046875 -12.691406 28.6875 -15.25 28.6875 -18.46875 Z M 28.6875 -18.46875" transform="translate(71.845 115.01)"/></g></g></g><g fill="#FFF"><g><g><path d="M 13.78125 -19.59375 C 13.78125 -13.757812 16.132812 -10.84375 20.84375 -10.84375 C 21.914062 -10.84375 22.921875 -10.984375 23.859375 -11.265625 C 24.796875 -11.546875 25.585938 -11.875 26.234375 -12.25 L 26.234375 -28.890625 C 25.722656 -28.984375 25.117188 -29.066406 24.421875 -29.140625 C 23.722656 -29.210938 22.90625 -29.25 21.96875 -29.25 C 19.21875 -29.25 17.164062 -28.335938 15.8125 -26.515625 C 14.457031 -24.703125 13.78125 -22.394531 13.78125 -19.59375 Z M 36.65625 -4.625 C 36.65625 1.394531 35.128906 5.863281 32.078125 8.78125 C 29.023438 11.695312 24.300781 13.15625 17.90625 13.15625 C 15.664062 13.15625 13.425781 12.957031 11.1875 12.5625 C 8.957031 12.164062 6.882812 11.640625 4.96875 10.984375 L 6.78125 2.234375 C 8.414062 2.890625 10.128906 3.40625 11.921875 3.78125 C 13.722656 4.15625 15.765625 4.34375 18.046875 4.34375 C 21.035156 4.34375 23.144531 3.6875 24.375 2.375 C 25.613281 1.070312 26.234375 -0.601562 26.234375 -2.65625 L 26.234375 -3.984375 C 25.117188 -3.472656 23.960938 -3.085938 22.765625 -2.828125 C 21.578125 -2.578125 20.285156 -2.453125 18.890625 -2.453125 C 13.804688 -2.453125 9.910156 -3.953125 7.203125 -6.953125 C 4.503906 -9.960938 3.15625 -14.175781 3.15625 -19.59375 C 3.15625 -22.300781 3.570312 -24.757812 4.40625 -26.96875 C 5.25 -29.1875 6.472656 -31.085938 8.078125 -32.671875 C 9.691406 -34.253906 11.660156 -35.476562 13.984375 -36.34375 C 16.316406 -37.207031 18.957031 -37.640625 21.90625 -37.640625 C 23.164062 -37.640625 24.457031 -37.582031 25.78125 -37.46875 C 27.113281 -37.351562 28.429688 -37.203125 29.734375 -37.015625 C 31.046875 -36.828125 32.296875 -36.601562 33.484375 -36.34375 C 34.671875 -36.09375 35.726562 -35.828125 36.65625 -35.546875 Z M 36.65625 -4.625" transform="translate(114.308 115.01)"/></g></g></g><g fill="#FFF"><g><g><path d="M 27.078125 -27.5625 C 26.140625 -27.800781 25.039062 -28.046875 23.78125 -28.296875 C 22.53125 -28.554688 21.179688 -28.6875 19.734375 -28.6875 C 19.078125 -28.6875 18.289062 -28.628906 17.375 -28.515625 C 16.46875 -28.398438 15.785156 -28.269531 15.328125 -28.125 L 15.328125 0 L 4.890625 0 L 4.890625 -34.84375 C 6.765625 -35.5 8.972656 -36.117188 11.515625 -36.703125 C 14.054688 -37.285156 16.890625 -37.578125 20.015625 -37.578125 C 20.566406 -37.578125 21.238281 -37.539062 22.03125 -37.46875 C 22.832031 -37.394531 23.628906 -37.300781 24.421875 -37.1875 C 25.210938 -37.070312 26.003906 -36.929688 26.796875 -36.765625 C 27.585938 -36.609375 28.265625 -36.410156 28.828125 -36.171875 Z M 27.078125 -27.5625" transform="translate(155.862 115.01)"/></g></g></g></svg>