<svg xmlns="http://www.w3.org/2000/svg" width="191.25" viewBox="0 0 191.25 191.25" height="191.25" version="1.0"><defs><clipPath id="a"><path d="M 0 0 L 190.503906 0 L 190.503906 190.503906 L 0 190.503906 Z M 0 0"/></clipPath><clipPath id="b"><path d="M 43.582031 87.734375 L 146.675781 87.734375 L 146.675781 102.675781 L 43.582031 102.675781 Z M 43.582031 87.734375"/></clipPath></defs><g clip-path="url(#a)"><path fill="#FFF" d="M 0 0 L 191.25 0 L 191.25 198.71875 L 0 198.71875 Z M 0 0"/><path fill="#FFF" d="M 0 0 L 190.503906 0 L 190.503906 190.503906 L 0 190.503906 Z M 0 0"/><path fill="#DE7438" d="M 0 0 L 190.503906 0 L 190.503906 190.503906 L 0 190.503906 Z M 0 0"/></g><g clip-path="url(#b)"><path fill="#1D2026" d="M 49.71875 102.652344 C 53.277344 102.652344 55.335938 102.09375 55.335938 99.222656 C 55.335938 96.691406 52.8125 96.117188 50.359375 95.738281 L 49.941406 95.671875 L 49.734375 95.644531 L 49.472656 95.601562 C 47.457031 95.300781 47.097656 95.015625 47.097656 94.507812 C 47.097656 94.152344 47.464844 93.515625 49.222656 93.515625 C 51.054688 93.515625 51.832031 94 51.832031 94.910156 L 51.832031 95.007812 L 55.027344 95.007812 L 55.027344 94.910156 C 55.027344 93.128906 54.019531 91.007812 49.222656 91.007812 C 44.773438 91.007812 43.839844 92.933594 43.839844 94.546875 C 43.839844 96.855469 45.90625 97.589844 49.238281 98.03125 C 49.394531 98.050781 49.5625 98.070312 49.730469 98.089844 C 50.976562 98.238281 52.097656 98.402344 52.097656 99.269531 C 52.097656 100.023438 50.894531 100.179688 49.636719 100.179688 C 47.546875 100.179688 46.808594 99.738281 46.808594 98.75 L 46.808594 98.652344 L 43.582031 98.652344 L 43.582031 99.109375 C 43.585938 99.699219 43.667969 100.535156 44.371094 101.242188 C 45.300781 102.179688 47.101562 102.652344 49.71875 102.652344 Z M 59.589844 102.652344 L 59.589844 97.074219 C 59.589844 95.507812 59.996094 93.78125 62.707031 93.78125 C 65.632812 93.78125 65.53125 95.851562 65.523438 96.792969 L 65.523438 102.652344 L 68.644531 102.652344 L 68.644531 96.867188 C 68.644531 95.183594 68.515625 91.085938 63.617188 91.085938 C 61.539062 91.085938 60.484375 91.761719 59.734375 92.78125 L 59.589844 92.78125 L 59.589844 91.085938 L 56.445312 91.085938 L 56.445312 102.652344 Z M 75.992188 102.652344 C 79.796875 102.652344 81.808594 101.113281 82.132812 98.628906 L 79.089844 98.628906 C 78.800781 99.386719 77.871094 99.910156 75.992188 99.910156 C 73.960938 99.910156 73.035156 99.140625 72.820312 97.597656 L 82.175781 97.597656 C 82.355469 96.011719 82.15625 93.5625 79.917969 92.054688 L 79.917969 92.058594 C 78.9375 91.378906 77.632812 90.96875 75.992188 90.96875 C 72.078125 90.96875 69.765625 93.03125 69.765625 96.8125 C 69.765625 100.660156 72.023438 102.652344 75.992188 102.652344 Z M 79.054688 95.523438 L 72.9375 95.523438 C 73.300781 94.351562 74.257812 93.714844 75.992188 93.714844 C 78.230469 93.714844 78.796875 94.65625 79.054688 95.523438 Z M 96.25 102.652344 L 96.25 91.078125 L 93.105469 91.078125 L 93.105469 92.777344 L 92.972656 92.777344 C 92.1875 91.753906 90.875 91.078125 88.730469 91.078125 C 83.925781 91.078125 83.332031 95.019531 83.3125 96.765625 L 83.3125 96.867188 C 83.3125 98.425781 83.859375 102.652344 88.722656 102.652344 C 90.898438 102.652344 92.222656 102.042969 93.007812 101.039062 L 93.105469 101.039062 L 93.105469 102.652344 Z M 89.632812 99.957031 C 86.648438 99.957031 86.3125 97.699219 86.3125 96.867188 C 86.3125 95.964844 86.628906 93.777344 89.640625 93.777344 C 92.351562 93.777344 92.90625 95.300781 92.90625 96.867188 C 92.90625 98.617188 92.351562 99.957031 89.632812 99.957031 Z M 109.941406 102.652344 L 105.0625 95.917969 L 109.984375 91.085938 L 105.628906 91.085938 L 100.523438 96.117188 L 100.523438 87.757812 L 97.394531 87.757812 L 97.394531 102.621094 L 100.523438 102.621094 L 100.523438 100.375 L 102.78125 98.160156 L 106.035156 102.652344 Z M 117.335938 102.652344 C 121.140625 102.652344 123.152344 101.113281 123.472656 98.628906 L 120.429688 98.628906 C 120.140625 99.386719 119.214844 99.910156 117.335938 99.910156 C 115.304688 99.910156 114.375 99.140625 114.160156 97.597656 L 123.519531 97.597656 C 123.699219 96.011719 123.496094 93.5625 121.257812 92.054688 L 121.257812 92.058594 C 120.277344 91.378906 118.976562 90.96875 117.335938 90.96875 C 113.421875 90.96875 111.109375 93.03125 111.109375 96.8125 C 111.109375 100.660156 113.363281 102.652344 117.335938 102.652344 Z M 120.398438 95.523438 L 114.28125 95.523438 C 114.644531 94.351562 115.597656 93.714844 117.335938 93.714844 C 119.574219 93.714844 120.140625 94.65625 120.398438 95.523438 Z M 127.820312 102.652344 L 127.820312 97.464844 C 127.820312 95.898438 128.515625 94.082031 130.847656 94.082031 C 131.839844 94.082031 132.632812 94.257812 132.925781 94.339844 L 133.425781 91.375 C 132.882812 91.257812 132.210938 91.085938 131.367188 91.085938 C 129.375 91.085938 128.660156 91.675781 128.015625 92.785156 L 127.820312 92.785156 L 127.820312 91.085938 L 124.675781 91.085938 L 124.675781 102.652344 Z M 140.683594 102.652344 C 144.242188 102.652344 146.300781 102.09375 146.300781 99.222656 C 146.300781 96.691406 143.777344 96.117188 141.328125 95.738281 L 140.910156 95.671875 L 140.699219 95.644531 L 140.441406 95.601562 C 138.421875 95.300781 138.0625 95.015625 138.0625 94.507812 C 138.0625 94.152344 138.429688 93.515625 140.1875 93.515625 C 142.019531 93.515625 142.796875 94 142.796875 94.910156 L 142.796875 95.007812 L 145.996094 95.007812 L 145.996094 94.910156 C 145.996094 93.128906 144.988281 91.007812 140.1875 91.007812 C 135.742188 91.007812 134.808594 92.933594 134.808594 94.546875 C 134.808594 96.855469 136.871094 97.589844 140.203125 98.03125 C 140.359375 98.050781 140.527344 98.070312 140.695312 98.089844 C 141.941406 98.238281 143.066406 98.402344 143.066406 99.269531 C 143.066406 100.023438 141.859375 100.179688 140.601562 100.179688 C 138.511719 100.179688 137.773438 99.738281 137.773438 98.75 L 137.773438 98.652344 L 134.546875 98.652344 L 134.546875 99.109375 C 134.554688 99.699219 134.636719 100.535156 135.335938 101.242188 C 136.265625 102.179688 138.066406 102.652344 140.683594 102.652344 Z M 140.683594 102.652344"/></g></svg>