<svg xmlns="http://www.w3.org/2000/svg" width="375" viewBox="0 0 375 375" height="375" version="1.0"><g fill="#FF184E"><g><g><path d="M 312.84375 -44.90625 C 299.664062 -29.125 281.035156 -16.878906 256.953125 -8.171875 C 232.878906 0.523438 206.203125 4.875 176.921875 4.875 C 146.171875 4.875 119.203125 -1.832031 96.015625 -15.25 C 72.835938 -28.675781 54.941406 -48.160156 42.328125 -73.703125 C 29.722656 -99.242188 23.257812 -129.253906 22.9375 -163.734375 L 22.9375 -187.90625 C 22.9375 -223.363281 28.914062 -254.066406 40.875 -280.015625 C 52.832031 -305.960938 70.078125 -325.8125 92.609375 -339.5625 C 115.140625 -353.3125 141.535156 -360.1875 171.796875 -360.1875 C 213.929688 -360.1875 246.875 -350.140625 270.625 -330.046875 C 294.375 -309.953125 308.445312 -280.707031 312.84375 -242.3125 L 241.578125 -242.3125 C 238.328125 -262.65625 231.128906 -277.539062 219.984375 -286.96875 C 208.847656 -296.40625 193.515625 -301.125 173.984375 -301.125 C 149.097656 -301.125 130.144531 -291.769531 117.125 -273.0625 C 104.113281 -254.351562 97.523438 -226.535156 97.359375 -189.609375 L 97.359375 -166.90625 C 97.359375 -129.65625 104.4375 -101.515625 118.59375 -82.484375 C 132.75 -63.453125 153.492188 -53.9375 180.828125 -53.9375 C 208.316406 -53.9375 227.921875 -59.789062 239.640625 -71.5 L 239.640625 -132.75 L 173.015625 -132.75 L 173.015625 -186.6875 L 312.84375 -186.6875 Z M 312.84375 -44.90625" transform="translate(10.077 361.275)"/></g></g></g></svg>