<svg xmlns="http://www.w3.org/2000/svg" width="1440" viewBox="0 0 1440 810" height="810" version="1.0"><g fill="#222"><g><g><path d="M 364.40625 0 L 266.4375 0 L 237.0625 -133.640625 C 235.664062 -139.234375 233.460938 -150.347656 230.453125 -166.984375 C 227.453125 -183.628906 225.25 -197.550781 223.84375 -208.75 C 222.726562 -199.65625 220.910156 -188.359375 218.390625 -174.859375 C 215.878906 -161.367188 213.398438 -148.957031 210.953125 -137.625 C 208.503906 -126.289062 198.328125 -80.414062 180.421875 0 L 82.453125 0 L 6.5 -306.71875 L 86.4375 -306.71875 L 119.796875 -152.9375 C 127.347656 -118.945312 132.519531 -91.882812 135.3125 -71.75 C 137.132812 -86.007812 140.382812 -105.378906 145.0625 -129.859375 C 149.75 -154.335938 154.125 -174.617188 158.1875 -190.703125 L 185.25 -306.71875 L 262.03125 -306.71875 L 288.25 -190.703125 C 292.726562 -172.097656 297.273438 -150.628906 301.890625 -126.296875 C 306.503906 -101.960938 309.582031 -83.78125 311.125 -71.75 C 312.9375 -87.269531 317.898438 -114.191406 326.015625 -152.515625 L 360 -306.71875 L 439.9375 -306.71875 Z M 364.40625 0" transform="translate(11.833 571.5)"/></g></g><g><g><path d="M 255.3125 -119.375 C 255.3125 -80.488281 244.859375 -50.171875 223.953125 -28.421875 C 203.046875 -6.671875 173.78125 4.203125 136.15625 4.203125 C 100.070312 4.203125 71.363281 -6.914062 50.03125 -29.15625 C 28.707031 -51.394531 18.046875 -81.46875 18.046875 -119.375 C 18.046875 -158.113281 28.5 -188.21875 49.40625 -209.6875 C 70.3125 -231.15625 99.648438 -241.890625 137.421875 -241.890625 C 160.773438 -241.890625 181.398438 -236.921875 199.296875 -226.984375 C 217.203125 -217.054688 231.015625 -202.828125 240.734375 -184.296875 C 250.453125 -165.765625 255.3125 -144.125 255.3125 -119.375 Z M 101.328125 -119.375 C 101.328125 -98.957031 104.050781 -83.394531 109.5 -72.6875 C 114.957031 -61.988281 124.125 -56.640625 137 -56.640625 C 149.726562 -56.640625 158.710938 -61.988281 163.953125 -72.6875 C 169.203125 -83.394531 171.828125 -98.957031 171.828125 -119.375 C 171.828125 -139.65625 169.164062 -154.96875 163.84375 -165.3125 C 158.53125 -175.664062 149.441406 -180.84375 136.578125 -180.84375 C 123.984375 -180.84375 114.957031 -175.703125 109.5 -165.421875 C 104.050781 -155.140625 101.328125 -139.789062 101.328125 -119.375 Z M 101.328125 -119.375" transform="translate(458.277 571.5)"/></g></g><g><g><path d="M 171.828125 -241.890625 C 178.953125 -241.890625 185.734375 -241.332031 192.171875 -240.21875 L 196.78125 -239.375 L 189.4375 -161.953125 C 182.726562 -163.640625 173.429688 -164.484375 161.546875 -164.484375 C 143.640625 -164.484375 130.628906 -160.390625 122.515625 -152.203125 C 114.398438 -144.023438 110.34375 -132.242188 110.34375 -116.859375 L 110.34375 0 L 28.328125 0 L 28.328125 -237.703125 L 89.375 -237.703125 L 102.171875 -199.71875 L 106.15625 -199.71875 C 113.007812 -212.3125 122.554688 -222.488281 134.796875 -230.25 C 147.035156 -238.007812 159.378906 -241.890625 171.828125 -241.890625 Z M 171.828125 -241.890625" transform="translate(732.06 571.5)"/></g></g><g><g><path d="M 107.828125 -133.640625 C 117.765625 -149.441406 126.226562 -161.75 133.21875 -170.5625 L 186.5 -237.703125 L 277.96875 -237.703125 L 195.53125 -136.578125 L 283.21875 0 L 189.4375 0 L 137.421875 -85.171875 L 110.765625 -64.828125 L 110.765625 0 L 28.328125 0 L 28.328125 -326.4375 L 110.765625 -326.4375 L 110.765625 -198.046875 C 110.765625 -176.085938 109.226562 -154.617188 106.15625 -133.640625 Z M 107.828125 -133.640625" transform="translate(933.672 571.5)"/></g></g><g><g><path d="M 211.890625 -73.015625 C 211.890625 -47.554688 203.21875 -28.320312 185.875 -15.3125 C 168.53125 -2.300781 143.632812 4.203125 111.1875 4.203125 C 93.5625 4.203125 78.242188 3.253906 65.234375 1.359375 C 52.234375 -0.523438 38.953125 -3.984375 25.390625 -9.015625 L 25.390625 -74.6875 C 38.109375 -69.09375 52.054688 -64.476562 67.234375 -60.84375 C 82.410156 -57.207031 95.941406 -55.390625 107.828125 -55.390625 C 125.597656 -55.390625 134.484375 -59.441406 134.484375 -67.546875 C 134.484375 -71.742188 132 -75.484375 127.03125 -78.765625 C 122.0625 -82.054688 107.617188 -88.457031 83.703125 -97.96875 C 61.890625 -106.925781 46.644531 -117.101562 37.96875 -128.5 C 29.300781 -139.894531 24.96875 -154.335938 24.96875 -171.828125 C 24.96875 -193.921875 33.5 -211.117188 50.5625 -223.421875 C 67.625 -235.734375 91.75 -241.890625 122.9375 -241.890625 C 138.601562 -241.890625 153.320312 -240.175781 167.09375 -236.75 C 180.875 -233.320312 195.175781 -228.320312 210 -221.75 L 187.765625 -168.890625 C 176.859375 -173.773438 165.316406 -177.929688 153.140625 -181.359375 C 140.972656 -184.785156 131.046875 -186.5 123.359375 -186.5 C 109.929688 -186.5 103.21875 -183.210938 103.21875 -176.640625 C 103.21875 -172.585938 105.5625 -169.125 110.25 -166.25 C 114.9375 -163.382812 128.46875 -157.550781 150.84375 -148.75 C 167.488281 -141.894531 179.898438 -135.179688 188.078125 -128.609375 C 196.265625 -122.035156 202.28125 -114.304688 206.125 -105.421875 C 209.96875 -96.535156 211.890625 -85.734375 211.890625 -73.015625 Z M 211.890625 -73.015625" transform="translate(1216.895 571.5)"/></g></g></g></svg>